# collider for abominotaur: built by build_models.py
o collider
v 1.569794 0.010600 -0.644832
v 1.488598 0.010600 -0.236637
v 1.257374 0.010600 0.109415
v 0.911323 0.010600 0.340639
v 0.503127 0.010600 0.421834
v 0.094931 0.010600 0.340639
v -0.251120 0.010600 0.109415
v -0.482345 0.010600 -0.236637
v -0.563540 0.010600 -0.644832
v -0.482345 0.010600 -1.053028
v -0.251120 0.010600 -1.399080
v 0.094931 0.010600 -1.630304
v 0.503127 0.010600 -1.711499
v 0.911323 0.010600 -1.630304
v 1.257374 0.010600 -1.399080
v 1.488598 0.010600 -1.053028
v 1.569794 0.213548 -0.644832
v 1.488598 0.213548 -0.236637
v 1.257374 0.213548 0.109415
v 0.911323 0.213548 0.340639
v 0.503127 0.213548 0.421834
v 0.094931 0.213548 0.340639
v -0.251120 0.213548 0.109415
v -0.482345 0.213548 -0.236637
v -0.563540 0.213548 -0.644832
v -0.482345 0.213548 -1.053028
v -0.251120 0.213548 -1.399080
v 0.094931 0.213548 -1.630304
v 0.503127 0.213548 -1.711499
v 0.911323 0.213548 -1.630304
v 1.257374 0.213548 -1.399080
v 1.488598 0.213548 -1.053028
v 1.356460 7.210048 -0.644832
v 1.291504 7.210048 -0.318276
v 1.106525 7.210048 -0.041435
v 0.829683 7.210048 0.143545
v 0.503127 7.210048 0.208501
v 0.176570 7.210048 0.143545
v -0.100271 7.210048 -0.041435
v -0.285250 7.210048 -0.318276
v -0.350206 7.210048 -0.644832
v -0.285250 7.210048 -0.971389
v -0.100271 7.210048 -1.248230
v 0.176570 7.210048 -1.433210
v 0.503127 7.210048 -1.498166
v 0.829683 7.210048 -1.433210
v 1.106525 7.210048 -1.248230
v 1.291504 7.210048 -0.971389
v 0.503127 0.010600 -0.644832
v 0.503127 7.210048 -0.644832
f 49 1 2
f 1 17 18 2
f 17 33 34 18
f 50 34 33
f 49 2 3
f 2 18 19 3
f 18 34 35 19
f 50 35 34
f 49 3 4
f 3 19 20 4
f 19 35 36 20
f 50 36 35
f 49 4 5
f 4 20 21 5
f 20 36 37 21
f 50 37 36
f 49 5 6
f 5 21 22 6
f 21 37 38 22
f 50 38 37
f 49 6 7
f 6 22 23 7
f 22 38 39 23
f 50 39 38
f 49 7 8
f 7 23 24 8
f 23 39 40 24
f 50 40 39
f 49 8 9
f 8 24 25 9
f 24 40 41 25
f 50 41 40
f 49 9 10
f 9 25 26 10
f 25 41 42 26
f 50 42 41
f 49 10 11
f 10 26 27 11
f 26 42 43 27
f 50 43 42
f 49 11 12
f 11 27 28 12
f 27 43 44 28
f 50 44 43
f 49 12 13
f 12 28 29 13
f 28 44 45 29
f 50 45 44
f 49 13 14
f 13 29 30 14
f 29 45 46 30
f 50 46 45
f 49 14 15
f 14 30 31 15
f 30 46 47 31
f 50 47 46
f 49 15 16
f 15 31 32 16
f 31 47 48 32
f 50 48 47
f 49 16 1
f 16 32 17 1
f 32 48 33 17
f 50 33 48
