# collider for colored_runner_1: built by build_models.py
o collider
v 0.254606 -0.000237 -0.078152
v 0.228244 -0.000237 0.054379
v 0.153171 -0.000237 0.166734
v 0.040817 -0.000237 0.241807
v -0.091715 -0.000237 0.268169
v -0.224246 -0.000237 0.241807
v -0.336600 -0.000237 0.166734
v -0.411673 -0.000237 0.054379
v -0.438035 -0.000237 -0.078152
v -0.411673 -0.000237 -0.210683
v -0.336600 -0.000237 -0.323037
v -0.224246 -0.000237 -0.398110
v -0.091715 -0.000237 -0.424472
v 0.040817 -0.000237 -0.398110
v 0.153171 -0.000237 -0.323037
v 0.228244 -0.000237 -0.210683
v 0.254606 0.086343 -0.078152
v 0.228244 0.086343 0.054379
v 0.153171 0.086343 0.166734
v 0.040817 0.086343 0.241807
v -0.091715 0.086343 0.268169
v -0.224246 0.086343 0.241807
v -0.336600 0.086343 0.166734
v -0.411673 0.086343 0.054379
v -0.438035 0.086343 -0.078152
v -0.411673 0.086343 -0.210683
v -0.336600 0.086343 -0.323037
v -0.224246 0.086343 -0.398110
v -0.091715 0.086343 -0.424472
v 0.040817 0.086343 -0.398110
v 0.153171 0.086343 -0.323037
v 0.228244 0.086343 -0.210683
v 0.185342 1.890302 -0.078152
v 0.164252 1.890302 0.027873
v 0.104194 1.890302 0.117757
v 0.014310 1.890302 0.177815
v -0.091715 1.890302 0.198905
v -0.197739 1.890302 0.177815
v -0.287623 1.890302 0.117757
v -0.347681 1.890302 0.027873
v -0.368771 1.890302 -0.078152
v -0.347681 1.890302 -0.184176
v -0.287623 1.890302 -0.274060
v -0.197739 1.890302 -0.334118
v -0.091715 1.890302 -0.355208
v 0.014310 1.890302 -0.334118
v 0.104194 1.890302 -0.274060
v 0.164252 1.890302 -0.184176
v -0.091715 -0.000237 -0.078152
v -0.091715 1.890302 -0.078152
f 49 1 2
f 1 17 18 2
f 17 33 34 18
f 50 34 33
f 49 2 3
f 2 18 19 3
f 18 34 35 19
f 50 35 34
f 49 3 4
f 3 19 20 4
f 19 35 36 20
f 50 36 35
f 49 4 5
f 4 20 21 5
f 20 36 37 21
f 50 37 36
f 49 5 6
f 5 21 22 6
f 21 37 38 22
f 50 38 37
f 49 6 7
f 6 22 23 7
f 22 38 39 23
f 50 39 38
f 49 7 8
f 7 23 24 8
f 23 39 40 24
f 50 40 39
f 49 8 9
f 8 24 25 9
f 24 40 41 25
f 50 41 40
f 49 9 10
f 9 25 26 10
f 25 41 42 26
f 50 42 41
f 49 10 11
f 10 26 27 11
f 26 42 43 27
f 50 43 42
f 49 11 12
f 11 27 28 12
f 27 43 44 28
f 50 44 43
f 49 12 13
f 12 28 29 13
f 28 44 45 29
f 50 45 44
f 49 13 14
f 13 29 30 14
f 29 45 46 30
f 50 46 45
f 49 14 15
f 14 30 31 15
f 30 46 47 31
f 50 47 46
f 49 15 16
f 15 31 32 16
f 31 47 48 32
f 50 48 47
f 49 16 1
f 16 32 17 1
f 32 48 33 17
f 50 33 48
