# collider for fatty_1: built by build_models.py
o collider
v 0.449496 -0.000708 0.093780
v 0.418685 -0.000708 0.248679
v 0.330941 -0.000708 0.379996
v 0.199624 -0.000708 0.467740
v 0.044725 -0.000708 0.498551
v -0.110174 -0.000708 0.467740
v -0.241491 -0.000708 0.379996
v -0.329234 -0.000708 0.248679
v -0.360045 -0.000708 0.093780
v -0.329234 -0.000708 -0.061119
v -0.241491 -0.000708 -0.192436
v -0.110174 -0.000708 -0.280179
v 0.044725 -0.000708 -0.310990
v 0.199624 -0.000708 -0.280179
v 0.330941 -0.000708 -0.192436
v 0.418685 -0.000708 -0.061119
v 0.449496 0.094530 0.093780
v 0.418685 0.094530 0.248679
v 0.330941 0.094530 0.379996
v 0.199624 0.094530 0.467740
v 0.044725 0.094530 0.498551
v -0.110174 0.094530 0.467740
v -0.241491 0.094530 0.379996
v -0.329234 0.094530 0.248679
v -0.360045 0.094530 0.093780
v -0.329234 0.094530 -0.061119
v -0.241491 0.094530 -0.192436
v -0.110174 0.094530 -0.280179
v 0.044725 0.094530 -0.310990
v 0.199624 0.094530 -0.280179
v 0.330941 0.094530 -0.192436
v 0.418685 0.094530 -0.061119
v 0.368542 2.291259 0.093780
v 0.343893 2.291259 0.217700
v 0.273698 2.291259 0.322753
v 0.168644 2.291259 0.392948
v 0.044725 2.291259 0.417597
v -0.079194 2.291259 0.392948
v -0.184248 2.291259 0.322753
v -0.254442 2.291259 0.217700
v -0.279091 2.291259 0.093780
v -0.254442 2.291259 -0.030139
v -0.184248 2.291259 -0.135192
v -0.079194 2.291259 -0.205387
v 0.044725 2.291259 -0.230036
v 0.168644 2.291259 -0.205387
v 0.273698 2.291259 -0.135192
v 0.343893 2.291259 -0.030139
v 0.044725 -0.000708 0.093780
v 0.044725 2.291259 0.093780
f 49 1 2
f 1 17 18 2
f 17 33 34 18
f 50 34 33
f 49 2 3
f 2 18 19 3
f 18 34 35 19
f 50 35 34
f 49 3 4
f 3 19 20 4
f 19 35 36 20
f 50 36 35
f 49 4 5
f 4 20 21 5
f 20 36 37 21
f 50 37 36
f 49 5 6
f 5 21 22 6
f 21 37 38 22
f 50 38 37
f 49 6 7
f 6 22 23 7
f 22 38 39 23
f 50 39 38
f 49 7 8
f 7 23 24 8
f 23 39 40 24
f 50 40 39
f 49 8 9
f 8 24 25 9
f 24 40 41 25
f 50 41 40
f 49 9 10
f 9 25 26 10
f 25 41 42 26
f 50 42 41
f 49 10 11
f 10 26 27 11
f 26 42 43 27
f 50 43 42
f 49 11 12
f 11 27 28 12
f 27 43 44 28
f 50 44 43
f 49 12 13
f 12 28 29 13
f 28 44 45 29
f 50 45 44
f 49 13 14
f 13 29 30 14
f 29 45 46 30
f 50 46 45
f 49 14 15
f 14 30 31 15
f 30 46 47 31
f 50 47 46
f 49 15 16
f 15 31 32 16
f 31 47 48 32
f 50 48 47
f 49 16 1
f 16 32 17 1
f 32 48 33 17
f 50 33 48
