# collider for necromantic_dragon: built by build_models.py
o collider
v 0.565646 0.001000 -0.265213
v 0.554156 0.001000 -0.207449
v 0.521436 0.001000 -0.158480
v 0.472466 0.001000 -0.125759
v 0.414702 0.001000 -0.114270
v 0.356939 0.001000 -0.125759
v 0.307969 0.001000 -0.158480
v 0.275249 0.001000 -0.207449
v 0.263759 0.001000 -0.265213
v 0.275249 0.001000 -0.322977
v 0.307969 0.001000 -0.371946
v 0.356939 0.001000 -0.404667
v 0.414702 0.001000 -0.416156
v 0.472466 0.001000 -0.404667
v 0.521436 0.001000 -0.371946
v 0.554156 0.001000 -0.322977
v 0.565646 0.041000 -0.265213
v 0.554156 0.041000 -0.207449
v 0.521436 0.041000 -0.158480
v 0.472466 0.041000 -0.125759
v 0.414702 0.041000 -0.114270
v 0.356939 0.041000 -0.125759
v 0.307969 0.041000 -0.158480
v 0.275249 0.041000 -0.207449
v 0.263759 0.041000 -0.265213
v 0.275249 0.041000 -0.322977
v 0.307969 0.041000 -0.371946
v 0.356939 0.041000 -0.404667
v 0.414702 0.041000 -0.416156
v 0.472466 0.041000 -0.404667
v 0.521436 0.041000 -0.371946
v 0.554156 0.041000 -0.322977
v 0.535457 1.510434 -0.265213
v 0.526265 1.510434 -0.219002
v 0.500089 1.510434 -0.179827
v 0.460913 1.510434 -0.153650
v 0.414702 1.510434 -0.144458
v 0.368492 1.510434 -0.153650
v 0.329316 1.510434 -0.179827
v 0.303140 1.510434 -0.219002
v 0.293948 1.510434 -0.265213
v 0.303140 1.510434 -0.311424
v 0.329316 1.510434 -0.350599
v 0.368492 1.510434 -0.376776
v 0.414702 1.510434 -0.385968
v 0.460913 1.510434 -0.376776
v 0.500089 1.510434 -0.350599
v 0.526265 1.510434 -0.311424
v 0.414702 0.001000 -0.265213
v 0.414702 1.510434 -0.265213
f 49 1 2
f 1 17 18 2
f 17 33 34 18
f 50 34 33
f 49 2 3
f 2 18 19 3
f 18 34 35 19
f 50 35 34
f 49 3 4
f 3 19 20 4
f 19 35 36 20
f 50 36 35
f 49 4 5
f 4 20 21 5
f 20 36 37 21
f 50 37 36
f 49 5 6
f 5 21 22 6
f 21 37 38 22
f 50 38 37
f 49 6 7
f 6 22 23 7
f 22 38 39 23
f 50 39 38
f 49 7 8
f 7 23 24 8
f 23 39 40 24
f 50 40 39
f 49 8 9
f 8 24 25 9
f 24 40 41 25
f 50 41 40
f 49 9 10
f 9 25 26 10
f 25 41 42 26
f 50 42 41
f 49 10 11
f 10 26 27 11
f 26 42 43 27
f 50 43 42
f 49 11 12
f 11 27 28 12
f 27 43 44 28
f 50 44 43
f 49 12 13
f 12 28 29 13
f 28 44 45 29
f 50 45 44
f 49 13 14
f 13 29 30 14
f 29 45 46 30
f 50 46 45
f 49 14 15
f 14 30 31 15
f 30 46 47 31
f 50 47 46
f 49 15 16
f 15 31 32 16
f 31 47 48 32
f 50 48 47
f 49 16 1
f 16 32 17 1
f 32 48 33 17
f 50 33 48
