# collider for npc_fletcher: built by build_models.py
o collider
v 0.323012 -0.006773 -0.032997
v 0.292563 -0.006773 0.120077
v 0.205854 -0.006773 0.249846
v 0.076085 -0.006773 0.336555
v -0.076988 -0.006773 0.367003
v -0.230062 -0.006773 0.336555
v -0.359831 -0.006773 0.249846
v -0.446540 -0.006773 0.120077
v -0.476988 -0.006773 -0.032997
v -0.446540 -0.006773 -0.186070
v -0.359831 -0.006773 -0.315839
v -0.230062 -0.006773 -0.402549
v -0.076988 -0.006773 -0.432997
v 0.076085 -0.006773 -0.402549
v 0.205854 -0.006773 -0.315839
v 0.292563 -0.006773 -0.186070
v 0.323012 0.093227 -0.032997
v 0.292563 0.093227 0.120077
v 0.205854 0.093227 0.249846
v 0.076085 0.093227 0.336555
v -0.076988 0.093227 0.367003
v -0.230062 0.093227 0.336555
v -0.359831 0.093227 0.249846
v -0.446540 0.093227 0.120077
v -0.476988 0.093227 -0.032997
v -0.446540 0.093227 -0.186070
v -0.359831 0.093227 -0.315839
v -0.230062 0.093227 -0.402549
v -0.076988 0.093227 -0.432997
v 0.076085 0.093227 -0.402549
v 0.205854 0.093227 -0.315839
v 0.292563 0.093227 -0.186070
v 0.243012 1.867976 -0.032997
v 0.218653 1.867976 0.089462
v 0.149286 1.867976 0.193277
v 0.045470 1.867976 0.262645
v -0.076988 1.867976 0.287003
v -0.199447 1.867976 0.262645
v -0.303263 1.867976 0.193277
v -0.372630 1.867976 0.089462
v -0.396988 1.867976 -0.032997
v -0.372630 1.867976 -0.155455
v -0.303263 1.867976 -0.259271
v -0.199447 1.867976 -0.328638
v -0.076988 1.867976 -0.352997
v 0.045470 1.867976 -0.328638
v 0.149286 1.867976 -0.259271
v 0.218653 1.867976 -0.155455
v -0.076988 -0.006773 -0.032997
v -0.076988 1.867976 -0.032997
f 49 1 2
f 1 17 18 2
f 17 33 34 18
f 50 34 33
f 49 2 3
f 2 18 19 3
f 18 34 35 19
f 50 35 34
f 49 3 4
f 3 19 20 4
f 19 35 36 20
f 50 36 35
f 49 4 5
f 4 20 21 5
f 20 36 37 21
f 50 37 36
f 49 5 6
f 5 21 22 6
f 21 37 38 22
f 50 38 37
f 49 6 7
f 6 22 23 7
f 22 38 39 23
f 50 39 38
f 49 7 8
f 7 23 24 8
f 23 39 40 24
f 50 40 39
f 49 8 9
f 8 24 25 9
f 24 40 41 25
f 50 41 40
f 49 9 10
f 9 25 26 10
f 25 41 42 26
f 50 42 41
f 49 10 11
f 10 26 27 11
f 26 42 43 27
f 50 43 42
f 49 11 12
f 11 27 28 12
f 27 43 44 28
f 50 44 43
f 49 12 13
f 12 28 29 13
f 28 44 45 29
f 50 45 44
f 49 13 14
f 13 29 30 14
f 29 45 46 30
f 50 46 45
f 49 14 15
f 14 30 31 15
f 30 46 47 31
f 50 47 46
f 49 15 16
f 15 31 32 16
f 31 47 48 32
f 50 48 47
f 49 16 1
f 16 32 17 1
f 32 48 33 17
f 50 33 48
