# collider for walker_4: built by build_models.py
o collider
v 0.581175 -0.003318 -0.543941
v 0.528222 -0.003318 -0.277726
v 0.377423 -0.003318 -0.052040
v 0.151738 -0.003318 0.098758
v -0.114477 -0.003318 0.151712
v -0.380692 -0.003318 0.098758
v -0.606377 -0.003318 -0.052040
v -0.757176 -0.003318 -0.277726
v -0.810129 -0.003318 -0.543940
v -0.757176 -0.003318 -0.810155
v -0.606377 -0.003318 -1.035841
v -0.380692 -0.003318 -1.186639
v -0.114477 -0.003318 -1.239593
v 0.151738 -0.003318 -1.186639
v 0.377423 -0.003318 -1.035841
v 0.528222 -0.003318 -0.810155
v 0.581175 0.170595 -0.543941
v 0.528222 0.170595 -0.277726
v 0.377423 0.170595 -0.052040
v 0.151738 0.170595 0.098758
v -0.114477 0.170595 0.151712
v -0.380692 0.170595 0.098758
v -0.606377 0.170595 -0.052040
v -0.757176 0.170595 -0.277726
v -0.810129 0.170595 -0.543940
v -0.757176 0.170595 -0.810155
v -0.606377 0.170595 -1.035841
v -0.380692 0.170595 -1.186639
v -0.114477 0.170595 -1.239593
v 0.151738 0.170595 -1.186639
v 0.377423 0.170595 -1.035841
v 0.528222 0.170595 -0.810155
v 0.442045 4.115019 -0.543941
v 0.399682 4.115019 -0.330969
v 0.279043 4.115019 -0.150420
v 0.098495 4.115019 -0.029781
v -0.114477 4.115019 0.012581
v -0.327449 4.115019 -0.029781
v -0.507997 4.115019 -0.150420
v -0.628636 4.115019 -0.330969
v -0.670999 4.115019 -0.543940
v -0.628636 4.115019 -0.756912
v -0.507997 4.115019 -0.937461
v -0.327449 4.115019 -1.058100
v -0.114477 4.115019 -1.100462
v 0.098495 4.115019 -1.058100
v 0.279043 4.115019 -0.937461
v 0.399682 4.115019 -0.756912
v -0.114477 -0.003318 -0.543941
v -0.114477 4.115019 -0.543941
f 49 1 2
f 1 17 18 2
f 17 33 34 18
f 50 34 33
f 49 2 3
f 2 18 19 3
f 18 34 35 19
f 50 35 34
f 49 3 4
f 3 19 20 4
f 19 35 36 20
f 50 36 35
f 49 4 5
f 4 20 21 5
f 20 36 37 21
f 50 37 36
f 49 5 6
f 5 21 22 6
f 21 37 38 22
f 50 38 37
f 49 6 7
f 6 22 23 7
f 22 38 39 23
f 50 39 38
f 49 7 8
f 7 23 24 8
f 23 39 40 24
f 50 40 39
f 49 8 9
f 8 24 25 9
f 24 40 41 25
f 50 41 40
f 49 9 10
f 9 25 26 10
f 25 41 42 26
f 50 42 41
f 49 10 11
f 10 26 27 11
f 26 42 43 27
f 50 43 42
f 49 11 12
f 11 27 28 12
f 27 43 44 28
f 50 44 43
f 49 12 13
f 12 28 29 13
f 28 44 45 29
f 50 45 44
f 49 13 14
f 13 29 30 14
f 29 45 46 30
f 50 46 45
f 49 14 15
f 14 30 31 15
f 30 46 47 31
f 50 47 46
f 49 15 16
f 15 31 32 16
f 31 47 48 32
f 50 48 47
f 49 16 1
f 16 32 17 1
f 32 48 33 17
f 50 33 48
