# collider for walker_5: built by build_models.py
o collider
v 0.981287 -0.000179 0.169713
v 0.928333 -0.000179 0.435927
v 0.777535 -0.000179 0.661613
v 0.551849 -0.000179 0.812411
v 0.285635 -0.000179 0.865365
v 0.019420 -0.000179 0.812411
v -0.206266 -0.000179 0.661613
v -0.357064 -0.000179 0.435927
v -0.410018 -0.000179 0.169713
v -0.357064 -0.000179 -0.096502
v -0.206266 -0.000179 -0.322188
v 0.019420 -0.000179 -0.472986
v 0.285634 -0.000179 -0.525940
v 0.551849 -0.000179 -0.472986
v 0.777535 -0.000179 -0.322188
v 0.928333 -0.000179 -0.096502
v 0.981287 0.173734 0.169713
v 0.928333 0.173734 0.435927
v 0.777535 0.173734 0.661613
v 0.551849 0.173734 0.812411
v 0.285635 0.173734 0.865365
v 0.019420 0.173734 0.812411
v -0.206266 0.173734 0.661613
v -0.357064 0.173734 0.435927
v -0.410018 0.173734 0.169713
v -0.357064 0.173734 -0.096502
v -0.206266 0.173734 -0.322188
v 0.019420 0.173734 -0.472986
v 0.285634 0.173734 -0.525940
v 0.551849 0.173734 -0.472986
v 0.777535 0.173734 -0.322188
v 0.928333 0.173734 -0.096502
v 0.842156 4.041220 0.169713
v 0.799794 4.041220 0.382684
v 0.679155 4.041220 0.563233
v 0.498606 4.041220 0.683872
v 0.285635 4.041220 0.726234
v 0.072663 4.041220 0.683872
v -0.107886 4.041220 0.563233
v -0.228525 4.041220 0.382684
v -0.270887 4.041220 0.169713
v -0.228525 4.041220 -0.043259
v -0.107886 4.041220 -0.223808
v 0.072663 4.041220 -0.344447
v 0.285634 4.041220 -0.386809
v 0.498606 4.041220 -0.344447
v 0.679155 4.041220 -0.223808
v 0.799794 4.041220 -0.043259
v 0.285634 -0.000179 0.169713
v 0.285634 4.041220 0.169713
f 49 1 2
f 1 17 18 2
f 17 33 34 18
f 50 34 33
f 49 2 3
f 2 18 19 3
f 18 34 35 19
f 50 35 34
f 49 3 4
f 3 19 20 4
f 19 35 36 20
f 50 36 35
f 49 4 5
f 4 20 21 5
f 20 36 37 21
f 50 37 36
f 49 5 6
f 5 21 22 6
f 21 37 38 22
f 50 38 37
f 49 6 7
f 6 22 23 7
f 22 38 39 23
f 50 39 38
f 49 7 8
f 7 23 24 8
f 23 39 40 24
f 50 40 39
f 49 8 9
f 8 24 25 9
f 24 40 41 25
f 50 41 40
f 49 9 10
f 9 25 26 10
f 25 41 42 26
f 50 42 41
f 49 10 11
f 10 26 27 11
f 26 42 43 27
f 50 43 42
f 49 11 12
f 11 27 28 12
f 27 43 44 28
f 50 44 43
f 49 12 13
f 12 28 29 13
f 28 44 45 29
f 50 45 44
f 49 13 14
f 13 29 30 14
f 29 45 46 30
f 50 46 45
f 49 14 15
f 14 30 31 15
f 30 46 47 31
f 50 47 46
f 49 15 16
f 15 31 32 16
f 31 47 48 32
f 50 48 47
f 49 16 1
f 16 32 17 1
f 32 48 33 17
f 50 33 48
