# collider for walker_3: built by build_models.py
o collider
v 0.487450 0.001318 0.032287
v 0.445453 0.001318 0.243423
v 0.325854 0.001318 0.422415
v 0.146862 0.001318 0.542014
v -0.064274 0.001318 0.584012
v -0.275410 0.001318 0.542014
v -0.454402 0.001318 0.422415
v -0.574001 0.001318 0.243423
v -0.615998 0.001318 0.032288
v -0.574001 0.001318 -0.178848
v -0.454402 0.001318 -0.357840
v -0.275410 0.001318 -0.477439
v -0.064274 0.001318 -0.519437
v 0.146862 0.001318 -0.477439
v 0.325854 0.001318 -0.357840
v 0.445453 0.001318 -0.178848
v 0.487450 0.139249 0.032287
v 0.445453 0.139249 0.243423
v 0.325854 0.139249 0.422415
v 0.146862 0.139249 0.542014
v -0.064274 0.139249 0.584012
v -0.275410 0.139249 0.542014
v -0.454402 0.139249 0.422415
v -0.574001 0.139249 0.243423
v -0.615998 0.139249 0.032288
v -0.574001 0.139249 -0.178848
v -0.454402 0.139249 -0.357840
v -0.275410 0.139249 -0.477439
v -0.064274 0.139249 -0.519437
v 0.146862 0.139249 -0.477439
v 0.325854 0.139249 -0.357840
v 0.445453 0.139249 -0.178848
v 0.377105 3.181908 0.032287
v 0.343507 3.181908 0.201196
v 0.247828 3.181908 0.344390
v 0.104635 3.181908 0.440069
v -0.064274 3.181908 0.473667
v -0.233183 3.181908 0.440069
v -0.376376 3.181908 0.344390
v -0.472055 3.181908 0.201196
v -0.505653 3.181908 0.032288
v -0.472055 3.181908 -0.136621
v -0.376376 3.181908 -0.279815
v -0.233183 3.181908 -0.375494
v -0.064274 3.181908 -0.409092
v 0.104635 3.181908 -0.375494
v 0.247828 3.181908 -0.279815
v 0.343507 3.181908 -0.136621
v -0.064274 0.001318 0.032287
v -0.064274 3.181908 0.032287
f 49 1 2
f 1 17 18 2
f 17 33 34 18
f 50 34 33
f 49 2 3
f 2 18 19 3
f 18 34 35 19
f 50 35 34
f 49 3 4
f 3 19 20 4
f 19 35 36 20
f 50 36 35
f 49 4 5
f 4 20 21 5
f 20 36 37 21
f 50 37 36
f 49 5 6
f 5 21 22 6
f 21 37 38 22
f 50 38 37
f 49 6 7
f 6 22 23 7
f 22 38 39 23
f 50 39 38
f 49 7 8
f 7 23 24 8
f 23 39 40 24
f 50 40 39
f 49 8 9
f 8 24 25 9
f 24 40 41 25
f 50 41 40
f 49 9 10
f 9 25 26 10
f 25 41 42 26
f 50 42 41
f 49 10 11
f 10 26 27 11
f 26 42 43 27
f 50 43 42
f 49 11 12
f 11 27 28 12
f 27 43 44 28
f 50 44 43
f 49 12 13
f 12 28 29 13
f 28 44 45 29
f 50 45 44
f 49 13 14
f 13 29 30 14
f 29 45 46 30
f 50 46 45
f 49 14 15
f 14 30 31 15
f 30 46 47 31
f 50 47 46
f 49 15 16
f 15 31 32 16
f 31 47 48 32
f 50 48 47
f 49 16 1
f 16 32 17 1
f 32 48 33 17
f 50 33 48
