# Blender 5.2.2 LTS
# www.blender.org
mtllib black_level_pointer.mtl
o Black_level_pointer
v -0.001608 0.008979 0.537673
v -0.000000 0.000000 0.496981
v 0.001608 0.008979 0.537673
v -0.002743 0.002630 0.517668
v -0.000000 0.004036 0.531109
v 0.002743 0.002630 0.517668
v -0.000000 0.010139 0.541153
v 0.070835 0.008903 0.131288
v 0.063412 0.000000 0.128840
v 0.069143 0.002608 0.130866
v 0.291238 0.008755 -0.258737
v 0.292992 0.008850 -0.244454
v 0.288678 0.000000 -0.251544
v 0.294264 0.009389 -0.251863
v 0.294287 0.003842 -0.252076
v 0.292738 0.002592 -0.246873
v 0.291574 0.002564 -0.256772
v -0.006436 0.008941 -0.542186
v 0.006436 0.008941 -0.542186
v -0.000000 0.000000 -0.537336
v -0.000000 0.008941 -0.544809
v -0.000000 0.003779 -0.544021
v 0.004551 0.002619 -0.541379
v -0.004551 0.002619 -0.541379
v -0.292992 0.008850 -0.244454
v -0.291238 0.008755 -0.258737
v -0.288678 0.000000 -0.251544
v -0.294460 0.008802 -0.251897
v -0.294275 0.003720 -0.252099
v -0.291410 0.002544 -0.256911
v -0.292650 0.002612 -0.246811
v -0.070835 0.008903 0.131288
v -0.063412 0.000000 0.128840
v -0.069143 0.002608 0.130866
v -0.001478 0.056956 0.521657
v 0.001478 0.056956 0.521657
v 0.005549 0.073174 0.458014
v -0.005549 0.073174 0.458014
v -0.000000 0.058119 0.525145
v 0.000000 0.065960 0.502375
v 0.004536 0.065452 0.489951
v 0.000000 0.076049 0.458606
v -0.004536 0.065452 0.489951
v 0.057614 0.073174 0.128267
v 0.064534 0.057031 0.127438
v 0.067673 0.073976 0.101781
v 0.061925 0.065474 0.127988
v 0.063574 0.067677 0.121099
v 0.067238 0.066506 0.115443
v 0.062006 0.072708 0.114756
v 0.260148 0.127657 -0.250181
v 0.245916 0.139739 -0.250109
v 0.249525 0.137783 -0.233209
v 0.262041 0.126287 -0.235717
v 0.253978 0.134817 -0.251021
v 0.257981 0.134444 -0.242519
v 0.248058 0.139812 -0.241610
v 0.256873 0.133031 -0.233688
v 0.263179 0.127538 -0.243168
v -0.006157 0.127454 -0.522794
v -0.008660 0.139739 -0.506346
v 0.008660 0.139739 -0.506346
v 0.006157 0.127454 -0.522794
v -0.008530 0.134758 -0.515608
v 0.000000 0.134945 -0.519421
v 0.000000 0.140718 -0.506611
v 0.008530 0.134758 -0.515608
v 0.000000 0.127887 -0.525478
v -0.262041 0.126287 -0.235717
v -0.249525 0.137783 -0.233209
v -0.245916 0.139739 -0.250109
v -0.260148 0.127657 -0.250181
v -0.256873 0.133031 -0.233688
v -0.257981 0.134444 -0.242519
v -0.248058 0.139812 -0.241610
v -0.253978 0.134817 -0.251021
v -0.263179 0.127538 -0.243168
v -0.067673 0.073976 0.101781
v -0.064534 0.057031 0.127438
v -0.057614 0.073174 0.128267
v -0.067238 0.066506 0.115443
v -0.063574 0.067677 0.121099
v -0.061925 0.065474 0.127988
v -0.062006 0.072708 0.114756
v -0.005549 0.199722 -0.156646
v 0.005549 0.199722 -0.156646
v 0.010246 0.213555 -0.212472
v 0.008660 0.214870 -0.229547
v -0.008660 0.214870 -0.229547
v -0.010246 0.213555 -0.212472
v 0.000000 0.202597 -0.156054
v -0.000000 0.214162 -0.208333
v 0.007260 0.205772 -0.184827
v 0.009790 0.215263 -0.220960
v 0.000000 0.215849 -0.229813
v -0.009790 0.215263 -0.220960
v -0.007260 0.205772 -0.184827
vn -0.4525 -0.7621 0.4631
vn -0.0000 -0.9920 0.1261
vn 0.8017 -0.5551 0.2217
vn 0.8732 -0.1038 -0.4762
vn 0.9816 -0.1022 0.1611
vn 0.5629 -0.8260 -0.0309
vn -0.4404 -0.2416 -0.8647
vn 0.3737 -0.1399 -0.9169
vn 0.0636 -0.8688 -0.4911
vn -0.9731 -0.1262 0.1927
vn -0.9004 -0.0997 -0.4234
vn -0.5414 -0.8323 -0.1190
vn -0.7323 0.6368 0.2413
vn 0.8342 0.5214 0.1795
vn 0.4671 0.8559 0.2218
vn -0.4671 0.8559 0.2218
vn 0.7984 0.5521 0.2405
vn 0.9158 0.2632 0.3033
vn 0.6920 0.6239 0.3632
vn 0.7448 0.5899 -0.3119
vn 0.5052 0.8524 -0.1346
vn 0.4809 0.8678 0.1255
vn 0.8061 0.5602 0.1907
vn -0.3525 0.6094 -0.7102
vn -0.1134 0.8744 -0.4719
vn 0.1134 0.8744 -0.4718
vn 0.3367 0.6025 -0.7236
vn -0.7896 0.5740 0.2170
vn -0.5413 0.8170 0.1986
vn -0.5052 0.8524 -0.1346
vn -0.7359 0.5966 -0.3203
vn -0.6920 0.6239 0.3632
vn -0.8184 0.3467 0.4583
vn -0.8253 0.4498 0.3414
vn -0.4673 0.8581 0.2126
vn 0.4673 0.8581 0.2126
vn 0.1706 0.9435 0.2841
vn 0.1140 0.9916 -0.0604
vn -0.1140 0.9916 -0.0604
vn -0.1338 0.9729 0.1886
vn -0.9296 -0.3329 0.1584
vn -0.3845 -0.9208 0.0661
vn -0.3518 -0.9126 0.2083
vn -0.8369 -0.2331 0.4953
vn -0.2786 -0.9183 -0.2812
vn -0.6754 -0.2880 -0.6788
vn 0.2864 -0.9134 -0.2893
vn 0.6921 -0.1840 -0.6980
vn 0.3447 -0.9163 0.2041
vn 0.8320 -0.2565 0.4919
vn 0.3845 -0.9208 0.0661
vn 0.9296 -0.3329 0.1584
vn 0.9159 0.1294 0.3801
vn -0.9159 0.1294 0.3801
vn 0.9614 0.2280 0.1538
vn 0.8769 0.4601 0.1391
vn 0.4676 0.8658 0.1782
vn -0.4676 0.8658 0.1782
vn 0.4677 0.8363 0.2860
vn 0.6728 0.7139 0.1941
vn 0.8746 0.2602 -0.4090
vn 0.9542 0.2380 0.1811
vn 0.7673 0.4078 0.4950
vn 0.5180 0.7435 0.4230
vn 0.2944 0.9521 -0.0823
vn 0.3109 0.9349 0.1714
vn -0.3732 0.1488 -0.9157
vn 0.3732 0.1488 -0.9157
vn 0.6418 0.4832 -0.5955
vn 0.4414 0.7988 -0.4087
vn -0.1164 0.9585 -0.2602
vn 0.1164 0.9585 -0.2602
vn -0.9533 0.2374 0.1865
vn -0.8728 0.2603 -0.4129
vn -0.6712 0.3975 -0.6257
vn -0.4589 0.7798 -0.4259
vn -0.3109 0.9349 0.1714
vn -0.2944 0.9521 -0.0823
vn -0.7560 0.4310 0.4927
vn -0.5118 0.7491 0.4205
vn -0.6728 0.7139 0.1941
vn -0.4677 0.8363 0.2860
vn -0.8769 0.4601 0.1391
vn -0.9614 0.2280 0.1538
vn -0.9776 0.1405 0.1564
vn -0.0000 -1.0000 -0.0000
vn 0.9841 0.0586 0.1676
vn 0.8559 0.1516 0.4944
vn 0.6867 0.2292 -0.6898
vn -0.7270 0.1126 -0.6774
vn -0.8458 0.1857 0.5001
vn 0.7874 0.6038 0.1243
vn -0.7874 0.6038 0.1243
vn 0.3106 0.8885 0.3379
vn 0.2722 0.9286 -0.2521
vn -0.2722 0.9286 -0.2521
vn -0.3106 0.8885 0.3379
vn -0.8017 -0.5551 0.2217
vn -0.0000 -0.9946 0.1040
vn 0.4525 -0.7621 0.4631
vn 0.9144 0.0192 -0.4043
vn 0.9589 -0.0070 0.2838
vn 0.5562 -0.8254 -0.0967
vn -0.3737 -0.1399 -0.9169
vn 0.4404 -0.2416 -0.8647
vn -0.0636 -0.8688 -0.4911
vn -0.9575 -0.0462 0.2846
vn -0.8603 -0.0111 -0.5096
vn -0.5532 -0.8330 -0.0046
vn -0.8342 0.5214 0.1795
vn 0.7323 0.6368 0.2413
vn 0.5867 0.7891 0.1819
vn -0.5867 0.7891 0.1819
vn 0.8253 0.4498 0.3414
vn 0.8184 0.3467 0.4583
vn 0.7046 0.6304 0.3258
vn 0.7359 0.5966 -0.3203
vn 0.4558 0.8725 -0.1763
vn 0.5413 0.8170 0.1986
vn 0.7896 0.5740 0.2170
vn -0.3367 0.6025 -0.7236
vn -0.1996 0.8933 -0.4026
vn 0.1996 0.8933 -0.4026
vn 0.3525 0.6094 -0.7102
vn -0.8061 0.5602 0.1907
vn -0.4809 0.8678 0.1255
vn -0.4558 0.8725 -0.1763
vn -0.7448 0.5899 -0.3119
vn -0.7046 0.6304 0.3258
vn -0.9158 0.2632 0.3033
vn -0.7984 0.5521 0.2405
vn -0.3943 0.8973 0.1985
vn 0.3943 0.8973 0.1985
vn 0.1338 0.9729 0.1886
vn -0.0111 0.9969 0.0783
vn 0.0111 0.9969 0.0783
vn -0.1706 0.9435 0.2841
vn -0.9500 -0.2662 0.1631
vn -0.3932 -0.9169 0.0677
vn -0.3447 -0.9163 0.2040
vn -0.8320 -0.2565 0.4919
vn -0.2853 -0.9141 -0.2882
vn -0.6918 -0.1861 -0.6977
vn 0.2786 -0.9183 -0.2812
vn 0.6754 -0.2880 -0.6788
vn 0.3474 -0.9149 0.2057
vn 0.8383 -0.2259 0.4962
vn 0.3932 -0.9169 0.0677
vn 0.9500 -0.2662 0.1631
vn 0.9279 0.1180 0.3537
vn -0.9279 0.1180 0.3537
vn 0.9473 0.2829 0.1502
vn 0.8664 0.4802 0.1368
vn 0.8881 0.2595 -0.3795
vn 0.9536 0.2372 0.1855
vn 0.7560 0.4310 0.4927
vn 0.5118 0.7491 0.4205
vn -0.4040 0.1486 -0.9026
vn 0.4040 0.1486 -0.9026
vn 0.6712 0.3975 -0.6257
vn 0.4589 0.7798 -0.4259
vn -0.9535 0.2375 0.1856
vn -0.8881 0.2595 -0.3795
vn -0.6418 0.4832 -0.5955
vn -0.4414 0.7988 -0.4087
vn -0.7673 0.4078 0.4950
vn -0.5180 0.7435 0.4230
vn -0.8664 0.4802 0.1368
vn -0.9473 0.2829 0.1502
vn -0.9841 0.0586 0.1676
vn 0.9776 0.1405 0.1564
vn 0.8458 0.1857 0.5001
vn 0.7270 0.1126 -0.6774
vn -0.6867 0.2292 -0.6898
vn -0.8559 0.1516 0.4944
vt 0.497320 0.011207
vt 0.500000 0.017174
vt 0.500000 0.008043
vt 0.504572 0.029393
vt 0.495428 0.029393
vt 0.500000 0.048199
vt 0.502680 0.011207
vt 0.985397 0.735215
vt 0.990478 0.729160
vt 0.985956 0.733429
vt 0.987896 0.724430
vt 0.990440 0.728966
vt 0.988320 0.722231
vt 0.981130 0.728677
vt 0.489273 0.992896
vt 0.500000 0.994565
vt 0.492415 0.992163
vt 0.510727 0.992896
vt 0.500000 0.995281
vt 0.500000 0.988487
vt 0.507585 0.992163
vt 0.009233 0.728997
vt 0.012251 0.724374
vt 0.011680 0.722231
vt 0.014317 0.733555
vt 0.014603 0.735215
vt 0.018870 0.728677
vt 0.009542 0.729181
vt 0.497537 0.025767
vt 0.500000 0.043296
vt 0.492441 0.054590
vt 0.502463 0.025767
vt 0.500000 0.022595
vt 0.500000 0.083085
vt 0.507559 0.054590
vt 0.509247 0.083623
vt 0.490752 0.083623
vt 0.596023 0.383394
vt 0.605957 0.389910
vt 0.603343 0.395677
vt 0.607557 0.384148
vt 0.603209 0.383647
vt 0.612063 0.395052
vt 0.612789 0.407472
vt 0.933580 0.727437
vt 0.929968 0.720472
vt 0.938632 0.721062
vt 0.913429 0.719645
vt 0.923296 0.728201
vt 0.909860 0.727372
vt 0.915875 0.712009
vt 0.936735 0.714288
vt 0.928122 0.712443
vt 0.489739 0.975267
vt 0.500000 0.972201
vt 0.500000 0.977707
vt 0.500000 0.960556
vt 0.485784 0.968734
vt 0.485566 0.960314
vt 0.514216 0.968734
vt 0.514434 0.960314
vt 0.510261 0.975267
vt 0.063265 0.714288
vt 0.070032 0.720472
vt 0.061368 0.721062
vt 0.084125 0.712009
vt 0.071878 0.712443
vt 0.076704 0.728201
vt 0.086571 0.719645
vt 0.090140 0.727372
vt 0.066420 0.727437
vt 0.387937 0.395052
vt 0.396657 0.395677
vt 0.387211 0.407472
vt 0.392443 0.384148
vt 0.394043 0.389910
vt 0.403977 0.383394
vt 0.396791 0.383647
vt 0.500000 0.641868
vt 0.487900 0.668025
vt 0.490752 0.642406
vt 0.512100 0.668025
vt 0.509247 0.642406
vt 0.517077 0.693156
vt 0.500000 0.689394
vt 0.500000 0.708921
vt 0.516317 0.700873
vt 0.514434 0.708679
vt 0.483683 0.700873
vt 0.485566 0.708679
vt 0.482923 0.693156
vt 0.381942 0.380647
vt 0.384761 0.381031
vt 0.394314 0.382873
vt 0.605686 0.382873
vt 0.615239 0.381031
vt 0.618058 0.380647
s 0
usemtl Charcoal_black_plastic
f 1/1/1 5/2/1 7/3/1
f 6/4/2 4/5/2 2/6/2
f 3/7/3 5/2/3 6/4/3
f 11/8/4 15/9/4 17/10/4
f 16/11/5 14/12/5 12/13/5
f 13/14/6 15/9/6 16/11/6
f 18/15/7 22/16/7 24/17/7
f 19/18/8 22/16/8 21/19/8
f 20/20/9 22/16/9 23/21/9
f 28/22/10 31/23/10 25/24/10
f 30/25/11 28/22/11 26/26/11
f 27/27/12 29/28/12 30/25/12
f 35/29/13 40/30/13 43/31/13
f 36/32/14 40/30/14 39/33/14
f 42/34/15 41/35/15 37/36/15
f 43/31/16 42/34/16 38/37/16
f 44/38/17 48/39/17 50/40/17
f 45/41/18 48/39/18 47/42/18
f 50/40/19 49/43/19 46/44/19
f 51/45/20 56/46/20 59/47/20
f 57/48/21 55/49/21 52/50/21
f 53/51/22 56/46/22 57/48/22
f 54/52/23 56/46/23 58/53/23
f 60/54/24 65/55/24 68/56/24
f 66/57/25 64/58/25 61/59/25
f 67/60/26 66/57/26 62/61/26
f 63/62/27 65/55/27 67/60/27
f 69/63/28 74/64/28 77/65/28
f 70/66/29 74/64/29 73/67/29
f 76/68/30 75/69/30 71/70/30
f 72/71/31 74/64/31 76/68/31
f 81/72/32 84/73/32 78/74/32
f 79/75/33 82/76/33 81/72/33
f 80/77/34 82/76/34 83/78/34
f 91/79/35 97/80/35 85/81/35
f 93/82/36 91/79/36 86/83/36
f 87/84/37 92/85/37 93/82/37
f 95/86/38 94/87/38 88/88/38
f 96/89/39 95/86/39 89/90/39
f 90/91/40 92/85/40 96/89/40
f 32/92/41 4/5/41 1/1/41
f 34/93/42 2/6/42 4/5/42
f 33/94/43 31/23/43 27/27/43
f 34/93/44 25/24/44 31/23/44
f 20/20/45 30/25/45 24/17/45
f 24/17/46 26/26/46 18/15/46
f 20/20/47 17/10/47 13/14/47
f 23/21/48 11/8/48 17/10/48
f 9/95/49 16/11/49 10/96/49
f 10/96/50 12/13/50 8/97/50
f 2/6/51 10/96/51 6/4/51
f 6/4/52 8/97/52 3/7/52
f 36/32/53 7/3/53 3/7/53
f 7/3/54 35/29/54 1/1/54
f 45/41/55 41/35/55 36/32/55
f 47/42/56 37/36/56 41/35/56
f 37/36/57 91/79/57 42/34/57
f 91/79/58 38/37/58 42/34/58
f 46/44/59 93/82/59 50/40/59
f 50/40/60 86/83/60 44/38/60
f 11/8/61 59/47/61 14/12/61
f 14/12/62 54/52/62 12/13/62
f 54/52/63 49/43/63 45/41/63
f 58/53/64 46/44/64 49/43/64
f 52/50/65 94/87/65 57/48/65
f 57/48/66 87/84/66 53/51/66
f 18/15/67 68/56/67 21/19/67
f 68/56/68 19/18/68 21/19/68
f 51/45/69 67/60/69 55/49/69
f 55/49/70 62/61/70 52/50/70
f 89/90/71 66/57/71 61/59/71
f 66/57/72 88/88/72 62/61/72
f 25/24/73 77/65/73 28/22/73
f 77/65/74 26/26/74 28/22/74
f 72/71/75 64/58/75 60/54/75
f 76/68/76 61/59/76 64/58/76
f 90/91/77 75/69/77 70/66/77
f 96/89/78 71/70/78 75/69/78
f 69/63/79 81/72/79 73/67/79
f 73/67/80 78/74/80 70/66/80
f 85/81/81 84/73/81 80/77/81
f 97/80/82 78/74/82 84/73/82
f 38/37/83 83/78/83 43/31/83
f 43/31/84 79/75/84 35/29/84
f 32/92/85 35/29/85 79/75/85
f 9/95/86 2/6/86 33/94/86
f 8/97/87 36/32/87 3/7/87
f 8/97/88 54/52/88 45/41/88
f 19/18/89 51/45/89 11/8/89
f 18/15/90 72/71/90 60/54/90
f 32/92/91 69/63/91 25/24/91
f 37/36/92 44/38/92 86/83/92
f 80/77/93 38/37/93 85/81/93
f 46/44/94 53/51/94 87/84/94
f 52/50/95 62/61/95 88/88/95
f 61/59/96 71/70/96 89/90/96
f 70/66/97 78/74/97 90/91/97
f 1/1/98 4/5/98 5/2/98
f 6/4/99 5/2/99 4/5/99
f 3/7/100 7/3/100 5/2/100
f 11/8/101 14/12/101 15/9/101
f 16/11/102 15/9/102 14/12/102
f 13/14/103 17/10/103 15/9/103
f 18/15/104 21/19/104 22/16/104
f 19/18/105 23/21/105 22/16/105
f 20/20/106 24/17/106 22/16/106
f 28/22/107 29/28/107 31/23/107
f 30/25/108 29/28/108 28/22/108
f 27/27/109 31/23/109 29/28/109
f 35/29/110 39/33/110 40/30/110
f 36/32/111 41/35/111 40/30/111
f 42/34/112 40/30/112 41/35/112
f 43/31/113 40/30/113 42/34/113
f 44/38/114 47/42/114 48/39/114
f 45/41/115 49/43/115 48/39/115
f 50/40/116 48/39/116 49/43/116
f 51/45/117 55/49/117 56/46/117
f 57/48/118 56/46/118 55/49/118
f 53/51/119 58/53/119 56/46/119
f 54/52/120 59/47/120 56/46/120
f 60/54/121 64/58/121 65/55/121
f 66/57/122 65/55/122 64/58/122
f 67/60/123 65/55/123 66/57/123
f 63/62/124 68/56/124 65/55/124
f 69/63/125 73/67/125 74/64/125
f 70/66/126 75/69/126 74/64/126
f 76/68/127 74/64/127 75/69/127
f 72/71/128 77/65/128 74/64/128
f 81/72/129 82/76/129 84/73/129
f 79/75/130 83/78/130 82/76/130
f 80/77/131 84/73/131 82/76/131
f 91/79/132 92/85/132 97/80/132
f 93/82/133 92/85/133 91/79/133
f 87/84/134 94/87/134 92/85/134
f 95/86/135 92/85/135 94/87/135
f 96/89/136 92/85/136 95/86/136
f 90/91/137 97/80/137 92/85/137
f 32/92/138 34/93/138 4/5/138
f 34/93/139 33/94/139 2/6/139
f 33/94/140 34/93/140 31/23/140
f 34/93/141 32/92/141 25/24/141
f 20/20/142 27/27/142 30/25/142
f 24/17/143 30/25/143 26/26/143
f 20/20/144 23/21/144 17/10/144
f 23/21/145 19/18/145 11/8/145
f 9/95/146 13/14/146 16/11/146
f 10/96/147 16/11/147 12/13/147
f 2/6/148 9/95/148 10/96/148
f 6/4/149 10/96/149 8/97/149
f 36/32/150 39/33/150 7/3/150
f 7/3/151 39/33/151 35/29/151
f 45/41/152 47/42/152 41/35/152
f 47/42/153 44/38/153 37/36/153
f 37/36/57 86/83/57 91/79/57
f 91/79/58 85/81/58 38/37/58
f 46/44/59 87/84/59 93/82/59
f 50/40/60 93/82/60 86/83/60
f 11/8/154 51/45/154 59/47/154
f 14/12/155 59/47/155 54/52/155
f 54/52/156 58/53/156 49/43/156
f 58/53/157 53/51/157 46/44/157
f 52/50/65 88/88/65 94/87/65
f 57/48/66 94/87/66 87/84/66
f 18/15/158 60/54/158 68/56/158
f 68/56/159 63/62/159 19/18/159
f 51/45/160 63/62/160 67/60/160
f 55/49/161 67/60/161 62/61/161
f 89/90/71 95/86/71 66/57/71
f 66/57/72 95/86/72 88/88/72
f 25/24/162 69/63/162 77/65/162
f 77/65/163 72/71/163 26/26/163
f 72/71/164 76/68/164 64/58/164
f 76/68/165 71/70/165 61/59/165
f 90/91/77 96/89/77 75/69/77
f 96/89/78 89/90/78 71/70/78
f 69/63/166 79/75/166 81/72/166
f 73/67/167 81/72/167 78/74/167
f 85/81/81 97/80/81 84/73/81
f 97/80/82 90/91/82 78/74/82
f 38/37/168 80/77/168 83/78/168
f 43/31/169 83/78/169 79/75/169
f 32/92/170 1/1/170 35/29/170
f 33/94/86 27/27/86 9/95/86
f 27/27/86 20/20/86 13/14/86
f 9/95/86 27/27/86 13/14/86
f 8/97/171 45/41/171 36/32/171
f 8/97/172 12/13/172 54/52/172
f 19/18/173 63/62/173 51/45/173
f 18/15/174 26/26/174 72/71/174
f 32/92/175 79/75/175 69/63/175
